<svg width="20" height="20" viewBox="0 0 20 20" fill="none" xmlns="http://www.w3.org/2000/svg">
<path id="Mask" fill-rule="evenodd" clip-rule="evenodd" d="M13.9374 7.80505L9.75011 13.3051C9.57778 13.5315 9.31103 13.6653 9.02686 13.6671H9.02044C8.73903 13.6671 8.47319 13.537 8.29903 13.3151L6.06969 10.4671C5.75803 10.0692 5.82769 9.49263 6.22644 9.18097C6.62428 8.86838 7.20178 8.93805 7.51344 9.33772L9.01036 11.2499L12.479 6.69497C12.7852 6.29255 13.3599 6.21372 13.7642 6.5208C14.1666 6.82788 14.2445 7.40263 13.9374 7.80505ZM10.0004 0.833801C4.93761 0.833801 0.833694 4.93772 0.833694 10.0005C0.833694 15.0623 4.93761 19.1671 10.0004 19.1671C15.0631 19.1671 19.167 15.0623 19.167 10.0005C19.167 4.93772 15.0631 0.833801 10.0004 0.833801Z" fill="#ABBBC2"/>
</svg>
